<svg id="visual" viewBox="0 0 900 600" width="900" height="600" xmlns="http://www.w3.org/2000/svg" xmlns:xlink="http://www.w3.org/1999/xlink" version="1.1"><rect x="0" y="0" width="900" height="600" fill="#8EA4C5"></rect><defs><linearGradient id="grad1_0" x1="33.3%" y1="0%" x2="100%" y2="100%"><stop offset="20%" stop-color="#678bbb" stop-opacity="1"></stop><stop offset="80%" stop-color="#678bbb" stop-opacity="1"></stop></linearGradient></defs><defs><linearGradient id="grad1_1" x1="33.3%" y1="0%" x2="100%" y2="100%"><stop offset="20%" stop-color="#678bbb" stop-opacity="1"></stop><stop offset="80%" stop-color="#7493be" stop-opacity="1"></stop></linearGradient></defs><defs><linearGradient id="grad1_2" x1="33.3%" y1="0%" x2="100%" y2="100%"><stop offset="20%" stop-color="#819cc2" stop-opacity="1"></stop><stop offset="80%" stop-color="#7493be" stop-opacity="1"></stop></linearGradient></defs><defs><linearGradient id="grad1_3" x1="33.3%" y1="0%" x2="100%" y2="100%"><stop offset="20%" stop-color="#819cc2" stop-opacity="1"></stop><stop offset="80%" stop-color="#8ea4c5" stop-opacity="1"></stop></linearGradient></defs><defs><linearGradient id="grad2_0" x1="0%" y1="0%" x2="66.7%" y2="100%"><stop offset="20%" stop-color="#678bbb" stop-opacity="1"></stop><stop offset="80%" stop-color="#678bbb" stop-opacity="1"></stop></linearGradient></defs><defs><linearGradient id="grad2_1" x1="0%" y1="0%" x2="66.7%" y2="100%"><stop offset="20%" stop-color="#7493be" stop-opacity="1"></stop><stop offset="80%" stop-color="#678bbb" stop-opacity="1"></stop></linearGradient></defs><defs><linearGradient id="grad2_2" x1="0%" y1="0%" x2="66.7%" y2="100%"><stop offset="20%" stop-color="#7493be" stop-opacity="1"></stop><stop offset="80%" stop-color="#819cc2" stop-opacity="1"></stop></linearGradient></defs><defs><linearGradient id="grad2_3" x1="0%" y1="0%" x2="66.7%" y2="100%"><stop offset="20%" stop-color="#8ea4c5" stop-opacity="1"></stop><stop offset="80%" stop-color="#819cc2" stop-opacity="1"></stop></linearGradient></defs><g transform="translate(900, 0)"><path d="M0 429C-20.2 428 -40.5 427.1 -61.2 425.6C-81.9 424.2 -103.1 422.2 -121.4 413.5C-139.8 404.8 -155.3 389.4 -174.1 381.1C-192.9 372.9 -214.9 371.8 -233.9 364C-252.9 356.2 -268.8 341.6 -282.2 325.7C-295.7 309.8 -306.7 292.6 -319.7 277C-332.6 261.5 -347.5 247.6 -360.9 231.9C-374.3 216.2 -386.2 198.6 -392.1 179C-398 159.5 -397.9 137.9 -401.1 117.8C-404.3 97.6 -410.7 78.9 -413.7 59.5C-416.8 40.1 -416.4 20 -416 0L0 0Z" fill="#88a0c3"></path><path d="M0 321.8C-15.2 321 -30.4 320.3 -45.9 319.2C-61.4 318.1 -77.3 316.7 -91.1 310.2C-104.8 303.6 -116.5 292.1 -130.5 285.9C-144.6 279.7 -161.2 278.8 -175.4 273C-189.7 267.1 -201.6 256.2 -211.7 244.3C-221.8 232.4 -230 219.4 -239.8 207.8C-249.5 196.1 -260.6 185.7 -270.7 174C-280.7 162.2 -289.6 149 -294 134.3C-298.5 119.6 -298.4 103.4 -300.8 88.3C-303.2 73.2 -308 59.2 -310.3 44.6C-312.6 30.1 -312.3 15 -312 0L0 0Z" fill="#7b97c0"></path><path d="M0 214.5C-10.1 214 -20.2 213.5 -30.6 212.8C-41 212.1 -51.5 211.1 -60.7 206.8C-69.9 202.4 -77.6 194.7 -87 190.6C-96.4 186.4 -107.5 185.9 -117 182C-126.5 178.1 -134.4 170.8 -141.1 162.9C-147.9 154.9 -153.4 146.3 -159.8 138.5C-166.3 130.7 -173.8 123.8 -180.4 116C-187.1 108.1 -193.1 99.3 -196 89.5C-199 79.7 -198.9 69 -200.5 58.9C-202.1 48.8 -205.4 39.4 -206.9 29.7C-208.4 20 -208.2 10 -208 0L0 0Z" fill="#6e8fbd"></path><path d="M0 107.3C-5.1 107 -10.1 106.8 -15.3 106.4C-20.5 106 -25.8 105.6 -30.4 103.4C-34.9 101.2 -38.8 97.4 -43.5 95.3C-48.2 93.2 -53.7 92.9 -58.5 91C-63.2 89 -67.2 85.4 -70.6 81.4C-73.9 77.5 -76.7 73.1 -79.9 69.3C-83.2 65.4 -86.9 61.9 -90.2 58C-93.6 54.1 -96.5 49.7 -98 44.8C-99.5 39.9 -99.5 34.5 -100.3 29.4C-101.1 24.4 -102.7 19.7 -103.4 14.9C-104.2 10 -104.1 5 -104 0L0 0Z" fill="#678bbb"></path></g><g transform="translate(0, 600)"><path d="M0 -420C19.9 -418.8 39.9 -417.7 59.6 -414.7C79.4 -411.8 99 -407.1 117.5 -400.1C136 -393.1 153.5 -383.7 171.6 -375.7C189.6 -367.6 208.3 -361 227.1 -353.3C245.9 -345.7 264.9 -337.1 282.2 -325.7C299.6 -314.3 315.3 -300.2 327 -283.3C338.7 -266.5 346.5 -247 356.7 -229.2C366.9 -211.5 379.5 -195.5 389.3 -177.8C399.1 -160.1 406.2 -140.8 412.6 -121.1C419 -101.5 424.8 -81.6 426.6 -61.3C428.4 -41.1 426.2 -20.5 424 0L0 0Z" fill="#88a0c3"></path><path d="M0 -315C15 -314.1 29.9 -313.2 44.7 -311.1C59.5 -308.9 74.2 -305.4 88.1 -300.1C102 -294.8 115.1 -287.8 128.7 -281.8C142.2 -275.7 156.2 -270.7 170.3 -265C184.4 -259.3 198.7 -252.8 211.7 -244.3C224.7 -235.8 236.4 -225.1 245.2 -212.5C254 -199.9 259.9 -185.2 267.5 -171.9C275.2 -158.6 284.6 -146.6 292 -133.3C299.4 -120.1 304.6 -105.6 309.4 -90.9C314.2 -76.1 318.6 -61.2 320 -46C321.3 -30.8 319.7 -15.4 318 0L0 0Z" fill="#7b97c0"></path><path d="M0 -210C10 -209.4 19.9 -208.8 29.8 -207.4C39.7 -205.9 49.5 -203.6 58.7 -200.1C68 -196.5 76.8 -191.9 85.8 -187.8C94.8 -183.8 104.1 -180.5 113.5 -176.7C122.9 -172.8 132.5 -168.6 141.1 -162.9C149.8 -157.2 157.6 -150.1 163.5 -141.7C169.4 -133.2 173.2 -123.5 178.3 -114.6C183.4 -105.7 189.8 -97.7 194.7 -88.9C199.6 -80.1 203.1 -70.4 206.3 -60.6C209.5 -50.8 212.4 -40.8 213.3 -30.7C214.2 -20.5 213.1 -10.3 212 0L0 0Z" fill="#6e8fbd"></path><path d="M0 -105C5 -104.7 10 -104.4 14.9 -103.7C19.8 -103 24.7 -101.8 29.4 -100C34 -98.3 38.4 -95.9 42.9 -93.9C47.4 -91.9 52.1 -90.2 56.8 -88.3C61.5 -86.4 66.2 -84.3 70.6 -81.4C74.9 -78.6 78.8 -75 81.7 -70.8C84.7 -66.6 86.6 -61.7 89.2 -57.3C91.7 -52.9 94.9 -48.9 97.3 -44.4C99.8 -40 101.5 -35.2 103.1 -30.3C104.7 -25.4 106.2 -20.4 106.7 -15.3C107.1 -10.3 106.6 -5.1 106 0L0 0Z" fill="#678bbb"></path></g></svg>